<?xml version="1.0" standalone="no"?>
<svg xmlns:xlink="http://www.w3.org/1999/xlink" id="wave" style="transform:rotate(180deg); transition: 0.3s" viewBox="0 0 1440 100" version="1.1" xmlns="http://www.w3.org/2000/svg"><defs><linearGradient id="sw-gradient-0" x1="0" x2="0" y1="1" y2="0"><stop stop-color="rgba(165, 170, 219, 1)" offset="0%"/><stop stop-color="rgba(165, 170, 219, 1)" offset="100%"/></linearGradient></defs><path style="transform:translate(0, 0px); opacity:1" fill="url(#sw-gradient-0)" d="M0,0L60,15C120,30,240,60,360,61.7C480,63,600,37,720,33.3C840,30,960,50,1080,56.7C1200,63,1320,57,1440,46.7C1560,37,1680,23,1800,20C1920,17,2040,23,2160,28.3C2280,33,2400,37,2520,45C2640,53,2760,67,2880,68.3C3000,70,3120,60,3240,46.7C3360,33,3480,17,3600,13.3C3720,10,3840,20,3960,21.7C4080,23,4200,17,4320,25C4440,33,4560,57,4680,63.3C4800,70,4920,60,5040,48.3C5160,37,5280,23,5400,26.7C5520,30,5640,50,5760,53.3C5880,57,6000,43,6120,41.7C6240,40,6360,50,6480,55C6600,60,6720,60,6840,53.3C6960,47,7080,33,7200,25C7320,17,7440,13,7560,15C7680,17,7800,23,7920,30C8040,37,8160,43,8280,38.3C8400,33,8520,17,8580,8.3L8640,0L8640,100L8580,100C8520,100,8400,100,8280,100C8160,100,8040,100,7920,100C7800,100,7680,100,7560,100C7440,100,7320,100,7200,100C7080,100,6960,100,6840,100C6720,100,6600,100,6480,100C6360,100,6240,100,6120,100C6000,100,5880,100,5760,100C5640,100,5520,100,5400,100C5280,100,5160,100,5040,100C4920,100,4800,100,4680,100C4560,100,4440,100,4320,100C4200,100,4080,100,3960,100C3840,100,3720,100,3600,100C3480,100,3360,100,3240,100C3120,100,3000,100,2880,100C2760,100,2640,100,2520,100C2400,100,2280,100,2160,100C2040,100,1920,100,1800,100C1680,100,1560,100,1440,100C1320,100,1200,100,1080,100C960,100,840,100,720,100C600,100,480,100,360,100C240,100,120,100,60,100L0,100Z"/></svg>